<svg width="17" height="16" viewBox="0 0 17 16" fill="none" xmlns="http://www.w3.org/2000/svg">
<path d="M14.5312 0.921631H2.118C1.66907 0.921631 1.23852 1.08672 0.921076 1.38058C0.603631 1.67444 0.425293 2.07301 0.425293 2.48859L0.425293 13.9796C0.425293 14.3952 0.603631 14.7938 0.921076 15.0876C1.23852 15.3815 1.66907 15.5466 2.118 15.5466H6.95809V10.5744H4.73641V8.23411H6.95809V6.45039C6.95809 4.4215 8.26289 3.3008 10.2613 3.3008C11.2184 3.3008 12.2192 3.4588 12.2192 3.4588V5.45014H11.1165C10.03 5.45014 9.69111 6.07432 9.69111 6.71448V8.23411H12.1166L11.7287 10.5744H9.69111V15.5466H14.5312C14.9801 15.5466 15.4107 15.3815 15.7281 15.0876C16.0456 14.7938 16.2239 14.3952 16.2239 13.9796V2.48859C16.2239 2.07301 16.0456 1.67444 15.7281 1.38058C15.4107 1.08672 14.9801 0.921631 14.5312 0.921631Z" fill="#1B1C22"/>
</svg>
