<svg width="17" height="17" viewBox="0 0 17 17" fill="none" xmlns="http://www.w3.org/2000/svg">
<path d="M16.1584 5.58467C16.1495 4.92132 16.0251 4.26456 15.7908 3.64378C15.5875 3.12015 15.2771 2.6446 14.8794 2.24752C14.4817 1.85044 14.0053 1.54055 13.4808 1.33766C12.867 1.10762 12.2185 0.983239 11.563 0.969803C10.719 0.932141 10.4515 0.921631 8.30907 0.921631C6.16668 0.921631 5.89208 0.921631 5.05425 0.969803C4.39904 0.983338 3.75087 1.10772 3.13733 1.33766C2.61275 1.54041 2.13633 1.85025 1.73857 2.24735C1.34081 2.64445 1.03045 3.12007 0.827367 3.64378C0.596486 4.25611 0.472164 4.90335 0.459774 5.55751C0.42205 6.40096 0.410645 6.66809 0.410645 8.80692C0.410645 10.9458 0.410645 11.219 0.459774 12.0563C0.472934 12.7115 0.596634 13.3578 0.827367 13.9718C1.0308 14.4954 1.34138 14.9708 1.73928 15.3677C2.13717 15.7647 2.61363 16.0744 3.1382 16.2771C3.75007 16.5163 4.39835 16.6496 5.05513 16.6712C5.89998 16.7089 6.16756 16.7202 8.30995 16.7202C10.4523 16.7202 10.7269 16.7202 11.5648 16.6712C12.2203 16.6583 12.8688 16.5342 13.4826 16.3042C14.0069 16.1011 14.4832 15.7911 14.8809 15.3941C15.2786 14.997 15.5891 14.5216 15.7925 13.9981C16.0233 13.385 16.147 12.7386 16.1601 12.0826C16.1979 11.24 16.2093 10.9729 16.2093 8.8332C16.2075 6.69437 16.2075 6.42286 16.1584 5.58467ZM8.30381 12.8516C6.06316 12.8516 4.248 11.0395 4.248 8.80254C4.248 6.56562 6.06316 4.75348 8.30381 4.75348C9.37948 4.75348 10.4111 5.18008 11.1717 5.93943C11.9323 6.69877 12.3596 7.72867 12.3596 8.80254C12.3596 9.87642 11.9323 10.9063 11.1717 11.6657C10.4111 12.425 9.37948 12.8516 8.30381 12.8516ZM12.521 5.54788C11.9973 5.54788 11.5753 5.12572 11.5753 4.60371C11.5753 4.47978 11.5998 4.35706 11.6473 4.24256C11.6948 4.12806 11.7644 4.02403 11.8522 3.93639C11.94 3.84876 12.0442 3.77925 12.1589 3.73182C12.2735 3.68439 12.3965 3.65998 12.5206 3.65998C12.6447 3.65998 12.7677 3.68439 12.8824 3.73182C12.997 3.77925 13.1013 3.84876 13.189 3.93639C13.2768 4.02403 13.3464 4.12806 13.3939 4.24256C13.4415 4.35706 13.4659 4.47978 13.4659 4.60371C13.4659 5.12572 13.043 5.54788 12.521 5.54788Z" fill="#1B1C22"/>
<path d="M8.30865 12.1068C10.0537 12.1068 11.4684 10.6921 11.4684 8.94708C11.4684 7.20201 10.0537 5.78735 8.30865 5.78735C6.56358 5.78735 5.14893 7.20201 5.14893 8.94708C5.14893 10.6921 6.56358 12.1068 8.30865 12.1068Z" fill="#1B1C22"/>
</svg>
