<svg width="17" height="16" viewBox="0 0 17 16" fill="none" xmlns="http://www.w3.org/2000/svg">
<path d="M14.5517 0.921631H2.13851C1.20399 0.921631 0.445801 1.6235 0.445801 2.48859V13.9796C0.445801 14.8447 1.20399 15.5466 2.13851 15.5466H14.5517C15.4862 15.5466 16.2444 14.8447 16.2444 13.9796V2.48859C16.2444 1.6235 15.4862 0.921631 14.5517 0.921631ZM12.8273 6.10566C12.8343 6.19706 12.8343 6.29173 12.8343 6.38314C12.8343 9.21346 10.5068 12.4747 6.25391 12.4747C4.94206 12.4747 3.72542 12.1221 2.70275 11.5149C2.88965 11.5345 3.0695 11.541 3.25993 11.541C4.34256 11.541 5.33702 11.2015 6.13048 10.627C5.11485 10.6074 4.26145 9.99041 3.96875 9.14164C4.32492 9.19061 4.64583 9.19061 5.01259 9.10247C3.95464 8.90333 3.16119 8.0415 3.16119 7.00013V6.97401C3.46799 7.13397 3.82769 7.23191 4.20502 7.24497C3.88779 7.04963 3.62773 6.78463 3.44806 6.47362C3.26838 6.1626 3.17467 5.81525 3.17529 5.46255C3.17529 5.06428 3.28814 4.69866 3.48915 4.382C4.6282 5.68127 6.33854 6.53004 8.25694 6.62145C7.92898 5.16874 9.1033 3.99026 10.5139 3.99026C11.1804 3.99026 11.7799 4.24816 12.2031 4.66601C12.725 4.57461 13.2257 4.39506 13.6701 4.15022C13.4973 4.64642 13.1341 5.06428 12.6545 5.3287C13.12 5.283 13.5713 5.16222 13.9875 4.99573C13.6736 5.42338 13.2786 5.80206 12.8273 6.10566Z" fill="#1B1C22"/>
</svg>
