<svg width="49" height="48" viewBox="0 0 49 48" fill="none" xmlns="http://www.w3.org/2000/svg">
<g clip-path="url(#clip0_2_206)">
<path d="M0.928391 42.0531C0.928391 43.6243 1.55257 45.1313 2.66363 46.2423C3.77468 47.3534 5.2816 47.9776 6.85287 47.9776H42.3997C43.971 47.9776 45.4779 47.3534 46.589 46.2423C47.7 45.1313 48.3242 43.6243 48.3242 42.0531V6.5062C48.3242 4.93494 47.7 3.42802 46.589 2.31697C45.4779 1.20591 43.971 0.581726 42.3997 0.581726L6.85287 0.581726C5.2816 0.581726 3.77468 1.20591 2.66363 2.31697C1.55257 3.42802 0.928391 4.93494 0.928391 6.5062V42.0531ZM14.2585 22.7985H31.4187L25.0588 16.4416C24.7807 16.1634 24.6244 15.7862 24.6244 15.3929C24.6244 14.9996 24.7807 14.6224 25.0588 14.3443C25.3369 14.0662 25.7141 13.9099 26.1074 13.9099C26.5007 13.9099 26.8779 14.0662 27.1561 14.3443L36.0428 23.231C36.1807 23.3686 36.2901 23.532 36.3648 23.712C36.4395 23.8919 36.4779 24.0848 36.4779 24.2796C36.4779 24.4745 36.4395 24.6674 36.3648 24.8473C36.2901 25.0272 36.1807 25.1907 36.0428 25.3283L27.1561 34.215C26.8779 34.4931 26.5007 34.6493 26.1074 34.6493C25.7141 34.6493 25.3369 34.4931 25.0588 34.215C24.7807 33.9369 24.6244 33.5597 24.6244 33.1664C24.6244 32.773 24.7807 32.3958 25.0588 32.1177L31.4187 25.7608H14.2585C13.8657 25.7608 13.4889 25.6047 13.2112 25.327C12.9334 25.0492 12.7773 24.6725 12.7773 24.2796C12.7773 23.8868 12.9334 23.5101 13.2112 23.2323C13.4889 22.9546 13.8657 22.7985 14.2585 22.7985Z" fill="#161519"/>
</g>
<defs>
<clipPath id="clip0_2_206">
<rect width="47.3958" height="47.3958" fill="white" transform="matrix(-1 0 0 1 48.3242 0.581726)"/>
</clipPath>
</defs>
</svg>
