<svg width="48" height="48" viewBox="0 0 48 48" fill="none" xmlns="http://www.w3.org/2000/svg">
<g clip-path="url(#clip0_2_209)">
<path d="M47.431 42.0531C47.431 43.6243 46.8068 45.1313 45.6957 46.2423C44.5847 47.3534 43.0778 47.9776 41.5065 47.9776H5.95963C4.38837 47.9776 2.88145 47.3534 1.7704 46.2423C0.659341 45.1313 0.0351563 43.6243 0.0351562 42.0531V6.5062C0.0351563 4.93494 0.659341 3.42802 1.7704 2.31697C2.88145 1.20591 4.38837 0.581726 5.95963 0.581726L41.5065 0.581726C43.0778 0.581726 44.5847 1.20591 45.6957 2.31697C46.8068 3.42802 47.431 4.93494 47.431 6.5062V42.0531ZM34.1009 22.7985H16.9407L23.3006 16.4416C23.5787 16.1634 23.7349 15.7862 23.7349 15.3929C23.7349 14.9996 23.5787 14.6224 23.3006 14.3443C23.0225 14.0662 22.6453 13.9099 22.252 13.9099C21.8586 13.9099 21.4814 14.0662 21.2033 14.3443L12.3166 23.231C12.1787 23.3686 12.0692 23.532 11.9946 23.712C11.9199 23.8919 11.8815 24.0848 11.8815 24.2796C11.8815 24.4745 11.9199 24.6674 11.9946 24.8473C12.0692 25.0272 12.1787 25.1907 12.3166 25.3283L21.2033 34.215C21.4814 34.4931 21.8586 34.6493 22.252 34.6493C22.6453 34.6493 23.0225 34.4931 23.3006 34.215C23.5787 33.9369 23.7349 33.5597 23.7349 33.1664C23.7349 32.773 23.5787 32.3958 23.3006 32.1177L16.9407 25.7608H34.1009C34.4937 25.7608 34.8705 25.6047 35.1482 25.327C35.426 25.0492 35.582 24.6725 35.582 24.2796C35.582 23.8868 35.426 23.5101 35.1482 23.2323C34.8705 22.9546 34.4937 22.7985 34.1009 22.7985Z" fill="#161519"/>
</g>
<defs>
<clipPath id="clip0_2_209">
<rect width="47.3958" height="47.3958" fill="white" transform="translate(0.0351562 0.581726)"/>
</clipPath>
</defs>
</svg>
