<svg width="21" height="15" viewBox="0 0 21 15" fill="none" xmlns="http://www.w3.org/2000/svg">
<path d="M19.6732 0.0543339C19.5871 0.0460163 19.5003 0.0460163 19.4141 0.0543339H1.71994C1.60653 0.0559714 1.49388 0.0719065 1.38501 0.10171L10.5165 8.62346L19.6732 0.0543339Z" fill="#1B1C22"/>
<path d="M20.6089 0.877197L11.4079 9.46375C11.1711 9.68434 10.8507 9.80815 10.5168 9.80815C10.1829 9.80815 9.86259 9.68434 9.62579 9.46375L0.506882 0.942337C0.478849 1.03889 0.463985 1.13837 0.462646 1.23842V13.0819C0.462646 13.3961 0.595805 13.6973 0.832829 13.9194C1.06985 14.1415 1.39133 14.2663 1.72653 14.2663H19.4209C19.7561 14.2663 20.0775 14.1415 20.3146 13.9194C20.5516 13.6973 20.6847 13.3961 20.6847 13.0819V1.23842C20.6797 1.11505 20.6541 0.993166 20.6089 0.877197ZM2.59229 13.0819H1.71389V12.2351L6.3081 7.96554L7.19913 8.80051L2.59229 13.0819ZM19.4082 13.0819H18.5235L13.9167 8.80051L14.8077 7.96554L19.4019 12.2351L19.4082 13.0819Z" fill="#1B1C22"/>
</svg>
