<svg width="93" height="38" viewBox="0 0 93 38" fill="none" xmlns="http://www.w3.org/2000/svg">
<circle cx="18.5985" cy="18.5809" r="18.5634" fill="#EFEFEF"/>
<path d="M21.7888 23.9667H16.6543V23.5559H17.6812V12.8761H16.6543V12.4653H21.7888V12.8761H20.7619V23.5559H21.7888V23.9667ZM34.2161 23.5559H35.243V23.9667H30.1084V23.5559H31.1353V17.8052C31.1353 16.8331 30.9916 16.1416 30.704 15.7309C30.4165 15.3201 29.9852 15.1147 29.4101 15.1147C28.6297 15.1147 28.0067 15.5255 27.5411 16.347V23.5559H28.568V23.9667H23.4335V23.5559H24.4604V14.9299H23.4335V14.5191H27.5411V15.5871C27.8013 15.2311 28.2052 14.9299 28.7529 14.6834C29.3143 14.4233 29.9167 14.2932 30.5603 14.2932C32.9975 14.2932 34.2161 15.6145 34.2161 18.2571V23.5559ZM40.45 14.9299V19.9412C40.45 21.1187 40.498 21.8375 40.5938 22.0977C40.6896 22.3442 40.7923 22.5564 40.9019 22.7344C41.1073 23.0904 41.4633 23.2684 41.9699 23.2684C42.4902 23.2684 42.853 23.1999 43.0584 23.063V23.4738C42.4012 23.9393 41.6823 24.1721 40.9019 24.1721C39.7517 24.1721 38.8754 23.8982 38.273 23.3505C37.6705 22.8028 37.3693 21.8239 37.3693 20.4136V14.9299H35.8495V14.5191H37.3693C38.0265 14.4096 38.6084 14.0946 39.1151 13.5743C39.6217 13.0404 39.9708 12.3078 40.1625 11.3768H40.45V14.5191H42.8325V14.9299H40.45ZM53.1699 19.859H46.9674C47.1043 22.2689 48.0422 23.4738 49.7811 23.4738C50.2466 23.4738 50.7738 23.3642 51.3626 23.1451C51.965 22.9261 52.4032 22.618 52.677 22.2209L52.9645 22.4263C52.6633 22.9329 52.1499 23.3505 51.4242 23.6791C50.6985 24.0078 49.9728 24.1721 49.2471 24.1721C48.5351 24.1721 47.8916 24.1036 47.3165 23.9667C46.7415 23.8161 46.1801 23.5696 45.6324 23.2273C45.0847 22.885 44.6534 22.3715 44.3385 21.6869C44.0373 21.0023 43.8867 20.174 43.8867 19.2018C43.8867 17.5451 44.3453 16.3196 45.2627 15.5255C46.1801 14.7176 47.2891 14.3137 48.5899 14.3137C49.9043 14.3137 50.9929 14.7519 51.8555 15.6282C52.7318 16.5045 53.1699 17.9148 53.1699 19.859ZM46.9468 19.4483H50.2946C50.2946 18.1886 50.1576 17.0864 49.8838 16.1416C49.6237 15.1969 49.1992 14.7245 48.6104 14.7245C48.0217 14.7245 47.5972 15.1832 47.3371 16.1005C47.0769 17.0042 46.9468 18.0448 46.9468 19.2224V19.4483ZM59.7965 23.9667H54.662V23.5559H55.6889V14.9299H54.662V14.5191H58.7696V16.9632C58.8928 16.2922 59.1119 15.7446 59.4268 15.3201C59.7555 14.8956 60.1114 14.615 60.4948 14.478C60.8919 14.3411 61.2684 14.2726 61.6244 14.2726C61.9941 14.2726 62.3433 14.3411 62.6719 14.478C63.0142 14.6013 63.2675 14.8614 63.4318 15.2585C63.5961 15.6419 63.6029 16.0321 63.4523 16.4292C63.3017 16.8125 63.0347 17.0864 62.6513 17.2507C62.2817 17.415 61.9393 17.4355 61.6244 17.3123C61.3095 17.1891 61.0836 17.0248 60.9467 16.8194C60.8097 16.6003 60.7139 16.3949 60.6591 16.2032C60.5222 15.6966 60.3374 15.4433 60.1046 15.4433C59.8445 15.4433 59.5569 15.8952 59.242 16.7988C58.9271 17.6888 58.7696 18.6336 58.7696 19.6331V23.5559H59.7965V23.9667ZM68.6978 23.5559H69.7247V23.9667H64.5901V23.5559H65.617V14.9299H64.7955V14.5191H68.6978V23.5559ZM68.8826 11.8081C68.8826 12.301 68.7046 12.7254 68.3486 13.0814C68.0063 13.4237 67.5818 13.5949 67.0752 13.5949C66.5823 13.5949 66.1579 13.4237 65.8019 13.0814C65.4459 12.7254 65.2679 12.301 65.2679 11.8081C65.2679 11.3015 65.4459 10.8702 65.8019 10.5142C66.1579 10.1582 66.5823 9.98016 67.0752 9.98016C67.5818 9.98016 68.0063 10.1582 68.3486 10.5142C68.7046 10.8702 68.8826 11.3015 68.8826 11.8081ZM74.5576 22.7344C74.8588 23.419 75.3791 23.7613 76.1185 23.7613C76.8578 23.7613 77.385 23.4121 77.6999 22.7138C78.0148 22.0155 78.1723 20.8654 78.1723 19.2634C78.1723 17.6478 78.0148 16.4908 77.6999 15.7925C77.385 15.0805 76.8578 14.7245 76.1185 14.7245C75.3791 14.7245 74.8588 15.0805 74.5576 15.7925C74.2563 16.4908 74.1057 17.6478 74.1057 19.2634C74.1057 20.8791 74.2563 22.0361 74.5576 22.7344ZM76.0774 24.1721C74.7766 24.1721 73.5991 23.7476 72.5448 22.8987C71.4905 22.0498 70.9634 20.8449 70.9634 19.284C70.9634 18.4487 71.114 17.7025 71.4152 17.0453C71.7301 16.3881 72.1409 15.8678 72.6475 15.4844C73.1678 15.101 73.7223 14.8135 74.3111 14.6218C74.8999 14.4164 75.5023 14.3137 76.1185 14.3137C76.7346 14.3137 77.3371 14.4164 77.9258 14.6218C78.5283 14.8135 79.0828 15.101 79.5894 15.4844C80.1097 15.8678 80.5273 16.3881 80.8422 17.0453C81.1572 17.7025 81.3146 18.4419 81.3146 19.2634C81.3146 20.085 81.1572 20.8175 80.8422 21.461C80.5273 22.1045 80.1097 22.618 79.5894 23.0014C78.5488 23.7818 77.3781 24.1721 76.0774 24.1721ZM87.8961 23.9667H82.7616V23.5559H83.7885V14.9299H82.7616V14.5191H86.8692V16.9632C86.9925 16.2922 87.2115 15.7446 87.5265 15.3201C87.8551 14.8956 88.2111 14.615 88.5944 14.478C88.9915 14.3411 89.3681 14.2726 89.724 14.2726C90.0937 14.2726 90.4429 14.3411 90.7715 14.478C91.1138 14.6013 91.3671 14.8614 91.5314 15.2585C91.6957 15.6419 91.7026 16.0321 91.5519 16.4292C91.4013 16.8125 91.1343 17.0864 90.751 17.2507C90.3813 17.415 90.039 17.4355 89.724 17.3123C89.4091 17.1891 89.1832 17.0248 89.0463 16.8194C88.9094 16.6003 88.8135 16.3949 88.7588 16.2032C88.6218 15.6966 88.437 15.4433 88.2042 15.4433C87.9441 15.4433 87.6565 15.8952 87.3416 16.7988C87.0267 17.6888 86.8692 18.6336 86.8692 19.6331V23.5559H87.8961V23.9667Z" fill="#171717"/>
</svg>
